<svg width="348" height="217" viewBox="0 0 348 217" fill="none" xmlns="http://www.w3.org/2000/svg">
<path d="M135.071 107.664C112.044 102.62 96.1918 97.5971 72.1471 98.7805C50.9209 99.8252 6.91929 106.157 1.86319 134.06C-1.76085 154.059 17.5304 167.995 31.035 176.834C43.4841 184.981 56.8408 191.987 70.8372 197.033C100.862 207.857 154.21 217.736 185.701 215.593C227.414 212.755 274.164 197.093 305.339 167.938C321.064 153.231 334.652 134.84 341.532 114.438C357.098 68.2807 340.253 42.5168 300.606 19.7447C268.215 1.14024 229.807 -1.89658 193.904 3.2519C183.523 4.74051 173.356 8.34758 164.053 13.1869C149.805 20.5979 145.082 32.359 133.411 42.2681" stroke="#050038" stroke-width="1.4" stroke-linecap="round"/>
<path d="M248.748 21.3022C248.191 21.2318 247.907 20.9358 247.895 20.4144C247.856 20.0317 247.909 19.614 248.054 19.1612C248.129 18.8849 248.163 18.6264 248.156 18.3856C248.128 18.1638 248.004 18.0469 247.785 18.0349C247.725 18.0316 247.674 18.0389 247.633 18.0567C247.47 18.1078 247.225 18.2046 246.896 18.3469C246.258 18.6726 245.66 18.9905 245.102 19.3006C244.853 19.4473 244.072 19.8252 242.757 20.4345C242.263 20.6679 241.817 20.7738 241.417 20.752L241.387 20.7503C240.868 20.722 240.613 20.4377 240.623 19.8974C240.63 19.7576 240.683 19.5301 240.78 19.215C240.782 19.175 240.807 19.0962 240.853 18.9786L240.894 18.7705L241.002 18.4459C241.03 18.3072 241.007 18.1758 240.934 18.0516C240.839 17.9463 240.712 17.8893 240.552 17.8806L240.522 17.879C240.242 17.8837 239.948 17.9477 239.641 18.0712L239.549 18.0962C239.284 18.1819 238.526 18.5011 237.274 19.0537L237.242 19.082L235.673 19.7475C235.285 19.8866 234.921 19.9469 234.582 19.9283L234.492 19.9234C233.955 19.8541 233.69 19.5692 233.697 19.0689C233.664 18.5863 233.757 18.1608 233.977 17.7922C234.414 17.135 234.961 16.4738 235.618 15.8087C235.764 15.6965 235.917 15.6447 236.077 15.6534L236.197 15.66C236.336 15.6876 236.431 15.7729 236.483 15.916C236.557 16.0401 236.551 16.15 236.465 16.2455C236.42 16.3432 236.312 16.4875 236.141 16.6785C235.632 17.2115 235.235 17.6806 234.953 18.0858C234.932 18.1047 234.91 18.1435 234.886 18.2024C234.863 18.2612 234.841 18.31 234.818 18.3489C234.81 18.5086 234.843 18.6306 234.919 18.7149C234.975 18.778 235.063 18.8129 235.183 18.8194L235.273 18.8243L235.365 18.7993C235.447 18.7637 235.569 18.7203 235.732 18.6691C235.896 18.598 236.019 18.5546 236.1 18.539L237.547 17.8969C237.814 17.7712 238.235 17.5839 238.81 17.3348C239.281 17.1402 239.759 16.9961 240.245 16.9024C240.487 16.8755 240.708 16.8676 240.908 16.8784L241.087 16.8883C241.744 16.9642 242.074 17.3427 242.077 18.0239C242.064 18.2635 242.022 18.4815 241.951 18.678C241.947 18.7579 241.92 18.8766 241.872 19.0342C241.863 19.1939 241.886 19.3154 241.942 19.3985C242.057 19.485 242.155 19.5304 242.235 19.5347C242.315 19.5391 242.365 19.5318 242.386 19.5129L242.418 19.4846L243.062 19.2493C243.206 19.1771 243.422 19.0587 243.712 18.8942C244.021 18.7309 244.248 18.613 244.392 18.5408C244.824 18.344 245.205 18.1445 245.536 17.9422C245.599 17.9056 245.804 17.8066 246.154 17.6454C246.524 17.4653 246.832 17.3219 247.078 17.2152C247.367 17.0707 247.733 16.9605 248.178 16.8846C248.239 16.8679 248.319 16.8623 248.419 16.8677C248.958 16.8971 249.232 17.2125 249.239 17.8138L249.226 18.0534L249.218 18.2032C249.213 18.2831 249.198 18.3724 249.173 18.4712C249.168 18.571 249.152 18.6803 249.125 18.799C249.099 18.9178 249.084 19.0071 249.08 19.067C249.079 19.087 249.067 19.1264 249.044 19.1852C249.042 19.2251 249.03 19.2545 249.009 19.2734C248.983 19.3922 248.963 19.5614 248.951 19.781C248.943 19.9408 248.977 20.0528 249.053 20.1171C249.108 20.2202 249.205 20.2756 249.345 20.2832C249.385 20.2854 249.446 20.2687 249.528 20.2331L249.558 20.2347C250.046 20.1011 250.413 19.9809 250.659 19.8742L252.655 19.0818C253.391 18.8015 253.954 18.5818 254.343 18.4228C254.629 18.3182 254.884 18.242 255.107 18.1941C255.128 18.1752 255.169 18.1674 255.228 18.1706C255.448 18.1826 255.603 18.2812 255.693 18.4664C255.801 18.6926 255.76 18.8907 255.57 19.0606C255.381 19.2305 255.226 19.3122 255.106 19.3057C254.826 19.3104 254.48 19.4017 254.07 19.5796L253.978 19.6047C253.814 19.6758 253.446 19.826 252.872 20.0551C252.299 20.2842 251.849 20.4599 251.522 20.5823C250.744 20.8803 250.101 21.1056 249.592 21.2581C249.349 21.305 249.108 21.3218 248.868 21.3088L248.748 21.3022ZM256.164 15.097C255.964 15.0861 255.838 15.0092 255.786 14.8661C255.695 14.7009 255.703 14.5411 255.812 14.3868C255.813 14.3668 255.888 14.2708 256.038 14.0987C256.685 13.6133 257.184 13.2799 257.535 13.0988C257.699 13.0276 257.852 12.9759 257.994 12.9435L258.084 12.9485C258.283 12.9593 258.427 13.0774 258.515 13.3025C258.585 13.4866 258.526 13.6436 258.339 13.7736C258.317 13.8124 258.265 13.8497 258.183 13.8852C257.689 14.1187 257.17 14.4509 256.626 14.8819L256.594 14.9102C256.407 15.0402 256.274 15.103 256.194 15.0987L256.164 15.097ZM254.066 22.1632C253.287 22.1207 252.917 21.73 252.958 20.9911C252.963 20.8913 252.995 20.6827 253.052 20.3653C253.18 19.8515 253.434 19.2445 253.812 18.544C254.007 18.2743 254.136 18.121 254.198 18.0844C254.281 18.0288 254.373 18.0038 254.472 18.0092C254.572 18.0147 254.652 18.029 254.711 18.0522C254.846 18.1398 254.908 18.2834 254.897 18.4831C254.889 18.6428 254.83 18.7999 254.721 18.9542C254.477 19.4015 254.249 19.9098 254.037 20.4792C254.007 20.6578 254.029 20.8092 254.103 20.9334C254.137 21.0354 254.254 21.0919 254.454 21.1028L254.574 21.1093C254.614 21.1115 254.776 21.0703 255.061 20.9857C255.793 20.7853 256.423 20.6194 256.951 20.4879C258.74 20.0047 260.246 19.5661 261.47 19.1722L261.591 19.1488C262.692 18.7882 263.3 18.6612 263.414 18.7675C263.479 19.0515 263.386 19.2968 263.134 19.5034C262.861 19.7288 262.542 19.8817 262.178 19.9619L260.71 20.4227C259.405 20.8522 258.387 21.1472 257.658 21.3077C257.192 21.4024 256.653 21.5433 256.042 21.7303C255.92 21.7637 255.757 21.8149 255.553 21.8838C255.37 21.9339 255.248 21.9673 255.187 21.9841L255.095 22.0091C254.569 22.1206 254.255 22.1736 254.155 22.1681L254.066 22.1632ZM261.698 22.099C261.638 22.0957 261.549 22.0708 261.432 22.0244C261.255 21.9546 261.173 21.8099 261.185 21.5903C261.208 21.1709 261.255 20.863 261.326 20.6666C261.59 19.8598 261.724 19.4164 261.729 19.3365L261.732 19.2766C261.743 19.0769 261.799 18.7895 261.899 18.4145C262 18.0394 262.056 17.742 262.068 17.5223L262.177 17.1678C262.248 16.9713 262.393 16.8791 262.613 16.8911C262.913 16.9074 263.057 17.0155 263.046 17.2152L263.055 17.6062C263.036 17.9457 263.146 18.142 263.383 18.195C263.402 18.2161 263.422 18.2271 263.442 18.2282C263.621 18.238 263.789 18.097 263.945 17.805C263.99 17.7273 264.022 17.6791 264.043 17.6602C264.17 17.5469 264.298 17.3937 264.429 17.2005C264.494 17.1039 264.612 16.9601 264.783 16.7691C264.847 16.6925 264.953 16.5881 265.101 16.456C265.248 16.3238 265.402 16.2621 265.561 16.2708C265.661 16.2763 265.731 16.2901 265.769 16.3122C266.004 16.4251 266.113 16.6314 266.096 16.9309L266.091 17.0208C266.057 17.6399 266.192 18.1079 266.495 18.4249C266.931 18.8893 267.458 19.1384 268.077 19.1722L268.227 19.1804C268.586 19.2 269.206 19.2138 270.087 19.2218C271.929 19.2422 273.053 19.1934 273.46 19.0754C273.521 19.0587 273.612 19.0536 273.732 19.0601L273.941 19.0716C274.121 19.0814 274.236 19.1678 274.288 19.3308C274.338 19.5138 274.319 19.673 274.231 19.8085C274.079 20.0405 273.882 20.1499 273.643 20.1369C273.603 20.1347 273.553 20.132 273.493 20.1287C273.434 20.1055 273.395 20.0933 273.375 20.0922L273.345 20.0906C273.083 20.1163 272.892 20.126 272.772 20.1194C272.533 20.1063 272.131 20.1245 271.568 20.1739C270.883 20.2367 269.872 20.2316 268.534 20.1585L268.055 20.1324C266.896 20.0692 266.012 19.5703 265.402 18.6357C265.272 18.4483 265.137 18.3508 264.998 18.3432C264.778 18.3312 264.633 18.4134 264.564 18.5899C264.539 18.6687 264.495 18.7464 264.431 18.823L264.136 19.2576C264.05 19.3731 263.919 19.5662 263.744 19.8371C263.284 20.5731 262.841 21.1599 262.416 21.5974C262.31 21.7117 262.173 21.8445 262.004 21.9955C261.92 22.071 261.818 22.1055 261.698 22.099ZM271.802 23.0108C271.365 22.9469 271.044 22.7692 270.84 22.4776C270.617 22.145 270.578 21.7623 270.722 21.3295C270.794 21.1131 270.896 20.8983 271.028 20.6852C271.573 19.8737 272.304 19.1324 273.222 18.4615C273.535 18.2382 273.851 18.1352 274.17 18.1527C274.53 18.1723 274.822 18.3184 275.048 18.5911C275.293 18.8649 275.434 19.2131 275.471 19.6358L275.468 19.6957L275.463 19.7855C275.441 20.1849 275.61 20.3945 275.97 20.4141C275.99 20.4152 276.02 20.4168 276.06 20.419C276.121 20.4023 276.171 20.395 276.211 20.3972C276.371 20.4059 276.632 20.3801 276.996 20.3199C277.279 20.2752 277.744 20.2004 278.391 20.0955C279.037 19.9906 279.533 19.9074 279.876 19.8461C280.159 19.8014 280.403 19.7346 280.608 19.6457C280.771 19.5945 280.933 19.5732 281.093 19.582L281.242 19.5901C281.462 19.6021 281.595 19.7395 281.64 20.0024C281.67 20.2043 281.591 20.3603 281.405 20.4703C281.261 20.5425 281.067 20.6021 280.824 20.6489C280.662 20.6801 280.409 20.7264 280.065 20.7878C279.743 20.8303 279.5 20.8671 279.338 20.8983C277.395 21.273 276.014 21.438 275.195 21.3933C274.955 21.3802 274.72 21.4776 274.488 21.6852L274.425 21.7419C274.362 21.7985 274.256 21.9029 274.107 22.055C273.959 22.2072 273.833 22.3205 273.728 22.3949C273.06 22.8992 272.418 23.1045 271.802 23.0108ZM273.911 20.1515L273.941 20.1531C274.26 20.1706 274.427 20.0495 274.441 19.7899C274.451 19.6101 274.418 19.4782 274.343 19.3939C274.248 19.2886 274.151 19.2332 274.051 19.2278C273.892 19.2191 273.738 19.2808 273.591 19.413C273.506 19.4885 273.46 19.5961 273.453 19.7359C273.439 19.9955 273.591 20.1341 273.911 20.1515ZM272.067 22.0038L272.097 22.0054C272.52 21.9684 272.868 21.8272 273.142 21.5817C273.205 21.5251 273.239 21.4468 273.245 21.347L273.246 21.317L273.25 21.2571L273.223 21.1956C273.227 21.1157 273.21 21.0647 273.171 21.0425C273.094 20.9982 273.006 20.9434 272.91 20.878C272.833 20.8138 272.765 20.77 272.707 20.7468C272.649 20.7036 272.59 20.6803 272.53 20.6771C272.271 20.6629 272.041 20.8306 271.842 21.1803C271.776 21.2769 271.73 21.3845 271.704 21.5033C271.682 21.5421 271.706 21.6436 271.777 21.8077C271.831 21.9308 271.927 21.9962 272.067 22.0038Z" fill="#050038"/>
</svg>
