<svg width="1440" height="438" viewBox="0 0 1440 438" fill="none" xmlns="http://www.w3.org/2000/svg">
<g clip-path="url(#clip0_430_3526)">
<path d="M-3.16674 427.92C84.5851 402.403 171.91 369.358 262.224 354.022C321.581 343.944 384.753 326.845 444.938 328.292C486.227 329.284 527.607 336.861 568.642 340.515C610.49 344.241 653.206 342.26 694.758 346.809C717.715 349.322 739.826 355.517 762.683 358.478C793.784 362.507 826.26 363.57 857.721 364.418C897.757 365.497 942.485 364.526 981.153 352.02C1031.71 335.669 1084.98 309.763 1129.13 281.388C1136.82 276.445 1142.57 270.151 1147.75 263.02C1159.31 247.1 1171.75 233.205 1186.13 219.334C1218.6 187.995 1249.43 155.745 1286.08 128.36C1357.37 75.0872 1426.7 22.6734 1484.19 -44.0468C1490.49 -51.3616 1504.35 -58.3213 1513.83 -61.4709C1541.54 -70.6753 1568.83 -86.2713 1594.72 -99.3099" stroke="#050038" stroke-width="0.891732" stroke-linecap="round"/>
<path d="M280.316 340.408C279.818 340.455 279.513 340.253 279.401 339.801C279.293 339.476 279.258 339.102 279.296 338.68C279.308 338.425 279.287 338.193 279.234 337.985C279.167 337.797 279.037 337.72 278.843 337.752C278.79 337.761 278.748 337.777 278.716 337.8C278.584 337.876 278.389 338.008 278.131 338.196C277.638 338.603 277.179 338.996 276.754 339.375C276.566 339.55 275.959 340.031 274.933 340.817C274.549 341.116 274.181 341.295 273.829 341.353L273.803 341.358C273.345 341.434 273.068 341.236 272.971 340.764C272.951 340.641 272.952 340.433 272.976 340.139C272.97 340.104 272.976 340.031 272.994 339.919L272.989 339.73L273.02 339.427C273.017 339.301 272.972 339.191 272.884 339.097C272.781 339.024 272.659 338.999 272.519 339.022L272.492 339.027C272.249 339.085 272.006 339.198 271.762 339.365L271.687 339.405C271.473 339.531 270.875 339.956 269.893 340.68L269.871 340.711L268.635 341.595C268.324 341.791 268.019 341.914 267.72 341.964L267.641 341.977C267.16 342.021 266.874 341.825 266.783 341.388C266.66 340.974 266.659 340.586 266.779 340.222C267.031 339.566 267.379 338.884 267.822 338.177C267.927 338.051 268.05 337.977 268.191 337.953L268.297 337.936C268.423 337.933 268.522 337.988 268.596 338.103C268.684 338.197 268.7 338.293 268.644 338.393C268.624 338.487 268.558 338.633 268.446 338.833C268.106 339.396 267.852 339.881 267.685 340.288C267.67 340.309 267.659 340.347 267.65 340.403C267.641 340.458 267.631 340.505 267.619 340.543C267.643 340.684 267.695 340.784 267.777 340.843C267.839 340.887 267.923 340.9 268.028 340.882L268.107 340.869L268.182 340.829C268.247 340.783 268.345 340.721 268.477 340.645C268.606 340.551 268.704 340.489 268.771 340.46L269.906 339.62C270.114 339.459 270.444 339.214 270.896 338.886C271.268 338.625 271.657 338.406 272.061 338.231C272.267 338.16 272.457 338.11 272.633 338.081L272.791 338.055C273.378 337.993 273.738 338.259 273.873 338.851C273.908 339.062 273.914 339.26 273.891 339.445C273.903 339.515 273.902 339.623 273.891 339.77C273.914 339.911 273.958 340.012 274.023 340.074C274.14 340.126 274.234 340.147 274.304 340.135C274.374 340.123 274.417 340.107 274.432 340.087L274.454 340.056L274.968 339.726C275.08 339.635 275.245 339.49 275.465 339.291C275.703 339.089 275.877 338.942 275.989 338.851C276.326 338.596 276.619 338.348 276.868 338.108C276.915 338.064 277.075 337.938 277.348 337.73C277.635 337.501 277.876 337.316 278.069 337.176C278.292 336.994 278.59 336.827 278.962 336.674C279.012 336.648 279.081 336.627 279.169 336.613C279.644 336.534 279.943 336.755 280.066 337.277L280.101 337.488L280.123 337.62C280.135 337.69 280.139 337.771 280.136 337.862C280.151 337.95 280.158 338.048 280.158 338.157C280.158 338.265 280.162 338.346 280.171 338.398C280.174 338.416 280.171 338.453 280.162 338.508C280.168 338.544 280.164 338.571 280.149 338.592C280.149 338.7 280.165 338.851 280.198 339.045C280.221 339.186 280.272 339.277 280.351 339.318C280.419 339.397 280.514 339.426 280.637 339.406C280.672 339.4 280.722 339.373 280.787 339.327L280.813 339.322C281.212 339.111 281.508 338.935 281.702 338.794L283.285 337.717C283.872 337.33 284.319 337.03 284.627 336.816C284.855 336.669 285.062 336.553 285.247 336.468C285.261 336.448 285.295 336.433 285.348 336.424C285.541 336.392 285.695 336.448 285.81 336.591C285.947 336.767 285.95 336.948 285.818 337.132C285.686 337.317 285.568 337.418 285.462 337.436C285.219 337.494 284.936 337.641 284.613 337.876L284.538 337.915C284.409 338.009 284.118 338.211 283.663 338.522C283.209 338.833 282.851 339.073 282.59 339.243C281.971 339.654 281.455 339.975 281.042 340.206C280.84 340.294 280.633 340.356 280.422 340.391L280.316 340.408ZM283.924 339.997C283.783 340.021 283.619 340.012 283.431 339.971C283.091 339.883 282.893 339.672 282.838 339.338C282.802 339.126 282.824 338.933 282.904 338.757C283.672 336.966 284.865 335.935 286.484 335.666C286.888 335.598 287.267 335.644 287.619 335.802C287.912 335.934 288.173 335.981 288.401 335.943L288.56 335.916C288.574 335.896 288.599 335.883 288.634 335.877C288.775 335.853 288.901 335.905 289.013 336.031C289.142 336.154 289.177 336.311 289.118 336.501C289.033 336.751 288.976 337.058 288.947 337.425C288.923 337.61 288.973 337.746 289.096 337.834C289.187 337.945 289.329 337.985 289.523 337.953L289.602 337.94C290.133 337.761 290.571 337.57 290.917 337.368C291.512 337.034 292.16 336.582 292.861 336.014C292.99 335.92 293.119 335.826 293.248 335.732C293.392 335.618 293.537 335.512 293.683 335.416C293.845 335.298 293.958 335.216 294.022 335.169C294.169 335.073 294.292 334.998 294.392 334.945L294.471 334.932C294.682 334.897 294.85 334.986 294.976 335.2C295.047 335.405 295 335.558 294.836 335.658C294.51 335.874 294.042 336.215 293.433 336.678C292.635 337.317 291.939 337.803 291.343 338.138C290.716 338.495 290.094 338.725 289.479 338.828C289.021 338.904 288.674 338.826 288.436 338.595C288.301 338.436 288.161 338.189 288.014 337.851L287.961 337.698L287.803 337.724C287.577 337.78 287.371 337.895 287.183 338.071L287.064 338.172L286.994 338.238C286.255 338.795 285.686 339.179 285.287 339.391C284.938 339.575 284.595 339.741 284.258 339.887C284.088 339.952 283.977 339.989 283.924 339.997ZM284.381 338.836L284.46 338.823C284.496 338.817 284.581 338.785 284.716 338.726C285.311 338.392 286.031 337.884 286.875 337.2L287.011 337.042C287.064 336.925 287.055 336.818 286.985 336.721C286.95 336.618 286.868 336.56 286.739 336.545C286.704 336.551 286.66 336.558 286.607 336.567C286.569 336.555 286.541 336.551 286.523 336.554L286.418 336.572C285.497 336.797 284.719 337.388 284.082 338.344C284.038 338.405 284.024 338.48 284.038 338.568C284.041 338.586 284.069 338.644 284.122 338.744C284.189 338.823 284.276 338.854 284.381 338.836ZM298.619 337.685C297.792 337.823 296.961 337.826 296.125 337.694C296.052 337.688 295.951 337.678 295.822 337.663C295.69 337.631 295.596 337.61 295.54 337.601C295.021 337.525 294.564 337.438 294.168 337.342C294.001 337.315 293.865 337.311 293.759 337.328C293.531 337.367 293.336 337.498 293.174 337.724L292.831 338.107L292.787 338.168C292.661 338.28 292.563 338.341 292.492 338.353C292.478 338.374 292.453 338.387 292.418 338.393C292.295 338.413 292.171 338.379 292.048 338.291C291.94 338.183 291.902 338.063 291.934 337.931C291.937 337.84 291.982 337.679 292.07 337.447C292.132 337.274 292.205 337.117 292.29 336.976C292.56 336.317 292.798 335.789 293.003 335.393C294.185 333.153 295.073 331.487 295.669 330.393C296.267 329.317 297.045 328.13 298.004 326.831C298.166 326.605 298.324 326.416 298.479 326.264C298.556 326.179 298.664 326.124 298.805 326.101L298.963 326.074C299.092 326.089 299.193 326.154 299.267 326.268C299.325 326.403 299.334 326.51 299.293 326.589C299.267 326.648 299.217 326.728 299.143 326.831C298.138 328.065 297.117 329.591 296.082 331.409C295.542 332.403 295.192 333.067 295.031 333.401L294.661 334.114L294.639 334.144C294.531 334.361 294.498 334.548 294.542 334.703L294.626 334.879L294.806 334.822C294.944 334.781 295.126 334.678 295.352 334.514C295.416 334.467 295.456 334.433 295.47 334.413C296.227 333.853 296.995 333.417 297.775 333.107C297.892 333.051 298.065 333.004 298.294 332.966C298.575 332.919 298.857 332.927 299.138 332.988C299.514 333.07 299.75 333.239 299.846 333.494C299.955 333.711 299.92 333.988 299.741 334.325C299.609 334.618 299.345 334.934 298.949 335.271C298.65 335.537 298.226 335.816 297.678 336.106C297.646 336.13 297.587 336.158 297.502 336.19C297.417 336.222 297.35 336.251 297.3 336.278C297.282 336.281 297.241 336.306 297.177 336.352C297.109 336.382 297.059 336.408 297.027 336.432L296.53 336.704L297.062 336.805C297.496 336.914 297.942 336.93 298.399 336.854L298.505 336.836C299.173 336.725 299.963 336.476 300.875 336.089C301.767 335.687 302.894 335.075 304.258 334.251C304.34 334.201 304.472 334.125 304.653 334.022C304.85 333.899 304.996 333.802 305.093 333.732C305.26 333.65 305.49 333.512 305.784 333.319C305.834 333.292 305.894 333.273 305.964 333.262C305.982 333.259 306.046 333.266 306.158 333.284C306.307 333.313 306.395 333.407 306.421 333.565C306.46 333.685 306.442 333.797 306.369 333.899C306.339 333.94 306.228 334.031 306.034 334.172L305.59 334.436C303.983 335.427 302.788 336.123 302.006 336.524C300.988 337.037 299.965 337.407 298.936 337.632L298.619 337.685ZM296.068 335.723L296.2 335.701L296.332 335.679C297.177 335.43 297.907 335.038 298.523 334.501C298.625 334.357 298.668 334.233 298.65 334.127C298.58 333.922 298.448 333.835 298.254 333.868L298.153 333.912C297.367 334.187 296.617 334.62 295.901 335.209C295.819 335.259 295.79 335.354 295.813 335.495C295.834 335.618 295.919 335.694 296.068 335.723ZM306.969 335.942C306.776 335.974 306.634 335.989 306.543 335.986C305.959 335.956 305.524 335.785 305.237 335.471C304.929 335.143 304.8 334.694 304.85 334.125C304.879 333.759 304.992 333.405 305.188 333.065C305.526 332.485 305.944 332.008 306.442 331.636C306.683 331.451 307.005 331.325 307.41 331.258L307.568 331.231C307.937 331.17 308.235 331.274 308.461 331.544C308.663 331.781 308.698 332.101 308.566 332.503C308.552 332.523 308.497 332.632 308.403 332.828C307.949 333.681 307.317 334.175 306.508 334.31L306.429 334.323C306.376 334.332 306.282 334.366 306.147 334.424C306.045 334.459 305.989 334.559 305.98 334.723C305.968 334.87 306.03 334.968 306.165 335.018C306.47 335.112 306.745 335.138 306.991 335.097C307.079 335.083 307.208 335.043 307.379 334.979C308.434 334.586 309.496 334.12 310.563 333.58C310.962 333.369 311.533 333.111 312.278 332.806C313.038 332.481 313.51 332.276 313.694 332.191C313.794 332.138 313.944 332.059 314.143 331.953C314.342 331.848 314.518 331.764 314.671 331.703C314.838 331.621 315.001 331.566 315.159 331.54C315.194 331.534 315.238 331.527 315.291 331.518C315.341 331.492 315.374 331.477 315.392 331.474C315.586 331.442 315.723 331.509 315.805 331.676C315.885 331.826 315.873 331.973 315.77 332.116C315.682 332.239 315.519 332.348 315.282 332.442L314.978 332.574C314.826 332.635 314.505 332.77 314.015 332.978C313.54 333.166 313.178 333.325 312.929 333.457C312.829 333.51 312.586 333.623 312.199 333.796C311.812 333.969 311.51 334.11 311.293 334.218C311.108 334.303 310.84 334.429 310.488 334.596C310.133 334.746 309.881 334.86 309.731 334.939C308.91 335.329 308.277 335.597 307.831 335.744C307.626 335.814 307.471 335.858 307.365 335.876L307.181 335.907L306.969 335.942ZM306.833 333.171L306.886 333.162C307.071 333.077 307.235 332.923 307.379 332.7C307.408 332.659 307.418 332.612 307.41 332.56L307.418 332.45L307.326 332.384C307.244 332.325 307.176 332.3 307.124 332.309L307.097 332.313C306.904 332.346 306.712 332.495 306.521 332.762C306.477 332.823 306.462 332.898 306.477 332.986L306.521 333.087L306.609 333.127C306.723 333.162 306.798 333.177 306.833 333.171Z" fill="#050038"/>
<path d="M332.055 333.462L331.998 333.447C331.763 333.457 331.559 333.433 331.384 333.377C331.125 333.264 330.949 333.108 330.855 332.909C330.758 332.692 330.767 332.463 330.883 332.222C330.978 331.967 331.19 331.706 331.519 331.441C331.951 331.047 332.525 330.643 333.243 330.228C333.274 330.203 333.355 330.151 333.485 330.071L333.9 329.825C334.078 329.717 334.168 329.572 334.168 329.39C334.137 329.324 334.098 329.268 334.053 329.222C334.008 329.177 333.955 329.142 333.896 329.117C333.837 329.092 333.788 329.075 333.749 329.064C333.711 329.054 333.636 329.041 333.524 329.027C333.412 329.013 333.319 329.004 333.246 329L333.188 328.984C333.129 328.96 333.043 328.94 332.931 328.926C332.854 328.905 332.76 328.887 332.648 328.873C332.407 328.757 332.276 328.692 332.255 328.678C332.129 328.594 332.037 328.448 331.978 328.242C331.915 328.018 331.926 327.843 332.01 327.717L332.094 327.592C332.778 327.002 333.497 326.687 334.253 326.647C334.274 326.661 334.311 326.663 334.363 326.652C334.51 326.66 334.63 326.718 334.725 326.826C334.84 326.949 334.874 327.078 334.829 327.215C334.779 327.333 334.688 327.424 334.555 327.487C334.52 327.494 334.442 327.509 334.319 327.534C334.193 327.54 334.095 327.551 334.025 327.564C333.955 327.578 333.88 327.611 333.799 327.664C333.736 327.712 333.693 327.767 333.668 327.826C333.612 328.001 333.646 328.13 333.772 328.214C333.898 328.299 334.118 328.401 334.432 328.52C334.747 328.64 334.958 328.743 335.067 328.831C335.178 328.936 335.295 328.977 335.418 328.953C335.512 328.97 335.6 328.953 335.68 328.901L336.331 328.608L337.382 328.128C337.784 327.957 338.353 327.709 339.089 327.381C339.824 327.054 340.342 326.824 340.643 326.692C340.776 326.63 340.979 326.553 341.252 326.463C341.287 326.456 341.331 326.447 341.383 326.437C341.432 326.409 341.466 326.393 341.483 326.39L341.693 326.348C341.927 326.338 342.085 326.444 342.165 326.664C342.241 326.867 342.174 327.035 341.964 327.167C341.799 327.254 341.663 327.3 341.555 327.303C341.359 327.323 341.066 327.408 340.678 327.558C340.279 327.746 339.678 328.019 338.876 328.378C338.075 328.736 337.474 329.009 337.075 329.197L336.245 329.552L336.125 329.631C336.107 329.634 336.083 329.648 336.051 329.673C336.034 329.676 336.016 329.68 335.999 329.683C335.694 329.798 335.52 330.023 335.478 330.359C335.234 331.516 334.482 332.446 333.221 333.15C332.909 333.321 332.521 333.425 332.055 333.462ZM332.388 332.524L332.493 332.503L332.65 332.472C333.193 332.274 333.645 331.939 334.006 331.468C334.111 331.356 334.124 331.235 334.044 331.106C333.97 331.011 333.869 330.959 333.74 330.948C333.705 330.955 333.672 330.97 333.64 330.995C333.108 331.245 332.635 331.566 332.221 331.957C332.127 332.03 332.095 332.146 332.126 332.303C332.154 332.352 332.21 332.405 332.294 332.461L332.388 332.524ZM338.859 334.79C338.789 334.803 338.716 334.8 338.639 334.779C338.443 334.708 338.354 334.58 338.372 334.395C338.379 334.339 338.42 334.176 338.494 333.907C338.804 332.81 339.685 329.954 341.136 325.34L341.432 324.355C341.446 324.334 341.464 324.285 341.485 324.208C341.523 324.127 341.546 324.059 341.553 324.003C341.603 323.794 341.698 323.675 341.838 323.647L341.89 323.637C342.03 323.609 342.154 323.639 342.262 323.727C342.35 323.8 342.388 323.902 342.377 324.031C342.384 324.157 342.352 324.318 342.282 324.514C342.25 324.629 342.208 324.783 342.155 324.975C342.098 325.15 342.06 325.276 342.038 325.353C341.898 325.744 341.801 326.036 341.748 326.228C341.727 326.305 341.709 326.354 341.695 326.375C341.597 326.522 341.575 326.735 341.631 327.015L341.667 327.199L341.877 327.157C342.052 327.123 342.224 326.98 342.392 326.728C342.406 326.707 342.427 326.676 342.455 326.634L342.503 326.597C342.699 326.304 342.904 326.054 343.118 325.848C343.346 325.621 343.633 325.374 343.98 325.105C344.327 324.837 344.532 324.678 344.595 324.629C344.893 324.388 345.208 324.235 345.54 324.169L345.803 324.118C346.264 324.154 346.54 324.354 346.63 324.717C346.731 325.043 346.757 325.311 346.707 325.52C346.587 326.017 346.485 326.328 346.401 326.454L346.359 326.516C346.247 326.684 346.208 326.855 346.242 327.03L346.258 327.109L346.347 327.146C346.501 327.188 346.604 327.204 346.657 327.194C346.744 327.177 346.812 327.154 346.861 327.126L346.982 327.048C347.175 326.919 347.387 326.795 347.618 326.677C347.849 326.558 348.106 326.435 348.39 326.306C348.691 326.173 348.915 326.066 349.062 325.982C349.227 325.895 349.633 325.696 350.281 325.386C350.946 325.073 351.44 324.812 351.762 324.603C351.94 324.495 352.117 324.423 352.292 324.389L352.397 324.368C352.607 324.327 352.75 324.407 352.827 324.61C352.903 324.813 352.863 324.976 352.705 325.098C352.642 325.147 352.584 325.176 352.532 325.187C352.479 325.197 352.437 325.215 352.406 325.239C352.294 325.316 351.907 325.519 351.245 325.85C350.979 325.976 349.998 326.488 348.304 327.386C347.169 327.992 346.243 328.366 345.526 328.508C345.438 328.526 345.326 328.557 345.19 328.602C345.05 328.63 344.945 328.65 344.875 328.664C344.035 328.83 343.269 328.818 342.577 328.628C342.462 328.596 342.351 328.591 342.246 328.611C342.054 328.649 341.912 328.759 341.821 328.941C341.768 329.042 341.679 329.187 341.552 329.376C341.342 329.69 341.126 330.069 340.904 330.513C340.195 331.98 339.666 333.212 339.317 334.208C339.247 334.404 339.183 334.544 339.127 334.627C339.071 334.711 338.982 334.765 338.859 334.79ZM344.128 327.23L344.18 327.22C345.002 327.057 345.528 326.544 345.757 325.681C345.814 325.506 345.788 325.375 345.68 325.287C345.571 325.2 345.465 325.166 345.36 325.187C345.342 325.19 345.316 325.196 345.281 325.202L345.234 325.239C344.744 325.336 344.204 325.824 343.615 326.705C343.53 326.83 343.527 326.949 343.603 327.061C343.701 327.187 343.785 327.244 343.855 327.23C343.89 327.223 343.927 327.225 343.965 327.235C344 327.228 344.026 327.223 344.044 327.22C344.061 327.216 344.089 327.22 344.128 327.23ZM351.355 327.601C351.215 327.629 351.051 327.625 350.862 327.59C350.519 327.512 350.315 327.307 350.249 326.974C350.208 326.764 350.224 326.57 350.298 326.392C351.012 324.578 352.174 323.512 353.783 323.194C354.186 323.115 354.565 323.149 354.921 323.296C355.218 323.419 355.481 323.458 355.708 323.413L355.866 323.382C355.88 323.361 355.904 323.347 355.939 323.34C356.079 323.313 356.207 323.36 356.322 323.483C356.454 323.602 356.494 323.758 356.441 323.95C356.364 324.202 356.316 324.511 356.298 324.878C356.28 325.064 356.334 325.199 356.46 325.283C356.554 325.391 356.697 325.427 356.89 325.389L356.968 325.373C357.493 325.178 357.926 324.975 358.265 324.762C358.85 324.41 359.484 323.939 360.168 323.35C360.294 323.252 360.42 323.154 360.546 323.057C360.686 322.938 360.828 322.828 360.972 322.727C361.13 322.605 361.24 322.52 361.303 322.471C361.447 322.37 361.567 322.291 361.665 322.235L361.744 322.22C361.954 322.178 362.125 322.263 362.258 322.473C362.334 322.676 362.292 322.83 362.131 322.934C361.812 323.161 361.355 323.515 360.759 323.996C359.981 324.659 359.3 325.167 358.715 325.519C358.099 325.895 357.484 326.144 356.872 326.265C356.417 326.355 356.067 326.288 355.823 326.063C355.683 325.909 355.535 325.666 355.379 325.333L355.321 325.181L355.164 325.212C354.94 325.274 354.737 325.396 354.554 325.578L354.439 325.682L354.37 325.75C353.649 326.329 353.092 326.73 352.699 326.953C352.356 327.149 352.018 327.324 351.686 327.481C351.518 327.551 351.407 327.591 351.355 327.601ZM351.777 326.427L351.856 326.411C351.891 326.404 351.975 326.37 352.108 326.307C352.693 325.955 353.397 325.425 354.221 324.717L354.352 324.554C354.401 324.435 354.389 324.329 354.316 324.234C354.278 324.133 354.194 324.076 354.065 324.066C354.03 324.073 353.986 324.081 353.933 324.092C353.895 324.081 353.867 324.077 353.849 324.081L353.744 324.102C352.831 324.355 352.071 324.969 351.463 325.943C351.421 326.006 351.409 326.081 351.426 326.169C351.43 326.186 351.459 326.244 351.515 326.342C351.585 326.419 351.672 326.448 351.777 326.427ZM363.235 324.925C363.025 324.966 362.693 324.987 362.238 324.986C361.64 324.995 361.154 324.7 360.781 324.101C360.461 323.583 360.45 323.021 360.748 322.417C361.103 321.729 361.578 321.326 362.173 321.208L362.225 321.198C362.802 321.083 363.202 321.313 363.425 321.888C363.432 321.923 363.439 322.048 363.445 322.265C363.434 322.486 363.333 322.615 363.14 322.653L363.114 322.658C362.974 322.686 362.846 322.638 362.731 322.516L362.621 322.374L362.616 322.347C362.595 322.333 362.583 322.318 362.579 322.3C362.548 322.143 362.419 322.086 362.192 322.131C362.157 322.138 362.09 322.17 361.992 322.225C361.663 322.4 361.47 322.71 361.413 323.158C361.36 323.532 361.544 323.823 361.967 324.03C362.187 324.132 362.402 324.162 362.612 324.121C362.665 324.11 362.745 324.104 362.854 324.1C362.959 324.08 363.037 324.064 363.09 324.054L363.352 324.002C364.052 323.863 364.843 323.543 365.726 323.042L368.436 321.442L369.119 321.034L369.403 320.815C369.438 320.808 369.478 320.782 369.524 320.736C369.57 320.691 369.601 320.666 369.619 320.663C369.717 320.607 369.783 320.576 369.818 320.569C369.976 320.538 370.114 320.592 370.232 320.732C370.382 320.939 370.368 321.142 370.189 321.341C370.161 321.383 370.026 321.482 369.784 321.639C368.726 322.357 367.466 323.107 366.002 323.887C365.014 324.409 364.118 324.75 363.314 324.909L363.235 324.925ZM370.141 323.668C369.949 323.706 369.807 323.725 369.716 323.725C369.132 323.713 368.692 323.555 368.395 323.25C368.078 322.931 367.935 322.487 367.968 321.916C367.986 321.549 368.089 321.193 368.275 320.847C368.594 320.256 368.998 319.768 369.485 319.38C369.719 319.189 370.038 319.053 370.44 318.973L370.598 318.942C370.965 318.87 371.266 318.965 371.5 319.227C371.709 319.459 371.754 319.777 371.634 320.183C371.62 320.204 371.569 320.314 371.481 320.513C371.052 321.379 370.436 321.892 369.631 322.051L369.552 322.067C369.5 322.077 369.407 322.114 369.274 322.176C369.172 322.215 369.12 322.316 369.116 322.48C369.108 322.627 369.173 322.724 369.309 322.769C369.617 322.854 369.893 322.872 370.138 322.824C370.226 322.806 370.353 322.763 370.521 322.693C371.565 322.269 372.611 321.771 373.662 321.2C374.054 320.977 374.618 320.702 375.353 320.374C376.102 320.026 376.568 319.807 376.75 319.716C376.848 319.661 376.995 319.577 377.191 319.466C377.388 319.354 377.561 319.265 377.711 319.199C377.876 319.112 378.037 319.053 378.195 319.022C378.23 319.015 378.273 319.006 378.326 318.996C378.375 318.968 378.408 318.952 378.426 318.949C378.618 318.911 378.758 318.974 378.845 319.139C378.928 319.286 378.921 319.433 378.823 319.579C378.739 319.705 378.579 319.818 378.345 319.919L378.045 320.06C377.895 320.126 377.578 320.271 377.095 320.494C376.626 320.695 376.269 320.866 376.023 321.005C375.925 321.061 375.685 321.181 375.304 321.366C374.922 321.55 374.625 321.7 374.411 321.815C374.229 321.906 373.964 322.04 373.618 322.217C373.268 322.377 373.019 322.499 372.872 322.583C372.063 322.997 371.438 323.285 370.997 323.445C370.794 323.521 370.64 323.57 370.535 323.59L370.351 323.627L370.141 323.668ZM369.922 320.903L369.974 320.893C370.156 320.802 370.316 320.643 370.453 320.416C370.481 320.374 370.49 320.327 370.479 320.275L370.485 320.164L370.391 320.101C370.307 320.045 370.239 320.022 370.186 320.033L370.16 320.038C369.967 320.076 369.78 320.231 369.598 320.503C369.555 320.566 369.543 320.642 369.56 320.729L369.607 320.829L369.696 320.866C369.812 320.897 369.887 320.91 369.922 320.903Z" fill="#050038"/>
<path d="M395.254 324.518C394.933 324.531 394.633 324.392 394.353 324.1C394.111 323.842 393.965 323.544 393.915 323.207C393.839 322.639 393.846 322.148 393.936 321.734C394.162 320.707 394.439 319.821 394.765 319.076C395.884 316.3 397.404 313.507 399.325 310.699C399.46 310.497 399.68 310.211 399.987 309.842C400.089 309.731 400.203 309.672 400.328 309.667L400.435 309.663C400.559 309.658 400.651 309.717 400.71 309.839C400.768 309.962 400.781 310.068 400.749 310.159C400.751 310.195 400.734 310.231 400.7 310.268C400.684 310.304 400.659 310.35 400.625 310.405C400.591 310.442 400.566 310.479 400.55 310.515L400.498 310.571C399.465 311.933 398.367 313.7 397.206 315.872C397.139 315.981 397.098 316.072 397.083 316.144C396.935 316.454 397.024 316.682 397.352 316.83C397.661 316.978 398.014 317.106 398.412 317.215L398.792 317.36C399.406 317.532 400.027 317.658 400.655 317.74C400.977 317.762 401.219 317.77 401.379 317.764C401.575 317.756 402.072 317.691 402.87 317.57L403.109 317.506C403.127 317.506 403.295 317.472 403.613 317.406L403.931 317.312L404.091 317.306C404.198 317.302 404.288 317.316 404.361 317.349C404.524 317.413 404.609 317.526 404.615 317.686C404.623 317.865 404.556 317.992 404.417 318.069C404.399 318.07 404.364 318.089 404.312 318.127C404.277 318.146 404.242 318.157 404.206 318.158C404.118 318.179 403.994 318.211 403.835 318.253C403.676 318.278 403.552 318.301 403.463 318.322C402.756 318.494 402.269 318.585 402.002 318.595C401.966 318.597 401.921 318.599 401.868 318.601C401.832 318.585 401.805 318.577 401.787 318.577L401.76 318.579L401.519 318.588C400.593 318.626 399.768 318.543 399.046 318.34L399.018 318.315C398.983 318.316 398.929 318.301 398.856 318.268C398.82 318.269 398.776 318.271 398.722 318.273C398.686 318.257 398.659 318.249 398.641 318.25C398.374 318.261 398.246 318.426 398.259 318.747L398.268 318.961L398.27 319.015C398.347 320.475 397.898 321.93 396.921 323.38C396.601 323.839 396.239 324.166 395.836 324.361C395.608 324.459 395.414 324.512 395.254 324.518ZM395.295 323.553C395.438 323.547 395.596 323.487 395.77 323.373L396.077 323.039C396.926 321.952 397.367 320.72 397.4 319.344C397.376 318.738 397.269 318.305 397.08 318.045L397.023 317.967C396.925 317.757 396.778 317.656 396.582 317.664L396.556 317.665C396.413 317.671 396.275 317.792 396.142 318.03C396.143 318.048 396.135 318.066 396.117 318.084C395.756 318.849 395.464 319.575 395.242 320.262C395.003 320.968 394.833 321.626 394.733 322.237C394.694 322.595 394.695 322.854 394.738 323.013C394.824 323.385 395.01 323.564 395.295 323.553ZM403.107 320.666C402.713 320.646 402.414 320.515 402.208 320.274C401.982 319.997 401.915 319.661 402.006 319.265C402.051 319.066 402.124 318.867 402.223 318.667C402.638 317.9 403.224 317.18 403.983 316.507C404.241 316.282 404.513 316.164 404.798 316.153C405.119 316.14 405.391 316.245 405.614 316.468C405.855 316.69 406.01 316.987 406.079 317.359L406.081 317.413L406.084 317.493C406.099 317.849 406.266 318.021 406.587 318.008C406.605 318.007 406.631 318.006 406.667 318.005C406.72 317.985 406.764 317.974 406.8 317.973C406.942 317.967 407.172 317.922 407.49 317.837C407.738 317.774 408.144 317.668 408.709 317.52C409.274 317.372 409.707 317.257 410.007 317.173C410.254 317.11 410.465 317.03 410.64 316.933C410.78 316.874 410.922 316.842 411.064 316.836L411.198 316.83C411.394 316.822 411.523 316.933 411.586 317.163C411.629 317.339 411.572 317.485 411.416 317.598C411.295 317.674 411.128 317.744 410.916 317.806C410.775 317.847 410.554 317.91 410.254 317.993C409.971 318.058 409.759 318.111 409.618 318.153C407.925 318.65 406.713 318.913 405.982 318.943C405.768 318.951 405.567 319.058 405.379 319.262L405.328 319.317C405.277 319.373 405.192 319.475 405.073 319.622C404.954 319.77 404.851 319.881 404.765 319.956C404.214 320.46 403.662 320.697 403.107 320.666ZM404.737 317.949L404.764 317.948C405.049 317.936 405.187 317.815 405.177 317.583C405.171 317.423 405.131 317.308 405.056 317.24C404.964 317.155 404.873 317.114 404.784 317.117C404.641 317.123 404.51 317.191 404.39 317.321C404.322 317.395 404.29 317.494 404.295 317.619C404.305 317.851 404.452 317.961 404.737 317.949ZM403.257 319.749L403.284 319.748C403.656 319.68 403.953 319.525 404.175 319.284C404.227 319.228 404.251 319.156 404.247 319.067L404.246 319.04L404.244 318.987L404.215 318.934C404.212 318.863 404.192 318.819 404.156 318.803C404.083 318.77 404.001 318.729 403.91 318.679C403.836 318.628 403.773 318.595 403.719 318.579C403.664 318.546 403.609 318.53 403.556 318.532C403.324 318.542 403.135 318.71 402.987 319.037C402.938 319.129 402.906 319.228 402.892 319.336C402.876 319.372 402.906 319.46 402.983 319.6C403.041 319.705 403.132 319.754 403.257 319.749ZM409.998 320.065C409.945 320.067 409.864 320.053 409.756 320.021C409.593 319.974 409.508 319.853 409.5 319.657C409.485 319.283 409.5 319.005 409.546 318.825C409.713 318.087 409.795 317.682 409.792 317.61L409.789 317.557C409.782 317.379 409.807 317.119 409.865 316.777C409.922 316.436 409.947 316.167 409.939 315.971L410.007 315.647C410.053 315.467 410.174 315.373 410.37 315.365C410.637 315.354 410.774 315.437 410.782 315.616L410.823 315.962C410.835 316.265 410.949 316.43 411.164 316.457C411.182 316.474 411.201 316.482 411.218 316.482C411.379 316.475 411.516 316.336 411.63 316.063C411.663 315.991 411.688 315.945 411.705 315.926C411.807 315.815 411.908 315.668 412.008 315.486C412.058 315.394 412.15 315.257 412.286 315.073C412.336 314.999 412.422 314.898 412.541 314.768C412.661 314.638 412.792 314.57 412.935 314.565C413.024 314.561 413.086 314.567 413.123 314.584C413.34 314.664 413.454 314.838 413.465 315.105L413.468 315.185C413.491 315.738 413.65 316.142 413.946 316.398C414.372 316.773 414.861 316.95 415.413 316.927L415.547 316.922C415.868 316.909 416.419 316.869 417.202 316.801C418.839 316.663 419.832 316.525 420.184 316.386C420.237 316.366 420.316 316.354 420.423 316.349L420.61 316.342C420.771 316.335 420.881 316.402 420.94 316.543C421 316.701 420.997 316.844 420.93 316.971C420.814 317.19 420.649 317.304 420.436 317.313C420.4 317.314 420.355 317.316 420.302 317.318C420.248 317.302 420.212 317.295 420.194 317.296L420.167 317.297C419.937 317.342 419.768 317.366 419.661 317.371C419.448 317.379 419.093 317.43 418.597 317.521C417.994 317.635 417.096 317.716 415.902 317.764L415.475 317.782C414.441 317.823 413.614 317.455 412.993 316.677C412.862 316.522 412.734 316.447 412.609 316.452C412.413 316.46 412.292 316.545 412.245 316.708C412.23 316.78 412.197 316.852 412.147 316.926L411.922 317.337C411.855 317.446 411.756 317.629 411.623 317.884C411.277 318.576 410.933 319.135 410.594 319.559C410.509 319.67 410.398 319.799 410.261 319.947C410.193 320.022 410.105 320.061 409.998 320.065Z" fill="#050038"/>
<path d="M441.075 320.469C440.807 320.433 440.62 320.353 440.513 320.228C440.37 320.068 440.325 319.872 440.379 319.64C440.397 319.551 440.423 319.426 440.459 319.265C440.512 319.087 440.539 318.98 440.539 318.944L440.646 318.597L440.646 318.489C440.682 318.418 440.717 318.284 440.753 318.088C440.771 317.945 440.744 317.838 440.672 317.767C440.601 317.696 440.503 317.66 440.378 317.66C440.307 317.66 440.253 317.669 440.218 317.687C439.968 317.759 439.745 317.839 439.549 317.928C439.442 317.982 439.281 318.062 439.067 318.169C438.853 318.258 438.693 318.33 438.586 318.383C438.425 318.473 438.167 318.606 437.81 318.785L436.312 319.454C436.045 319.579 435.742 319.642 435.403 319.642L435.323 319.642C434.966 319.642 434.672 319.482 434.44 319.161C434.243 318.893 434.199 318.599 434.306 318.278C434.377 318.028 434.502 317.689 434.68 317.261C435.357 315.816 436.373 314.22 437.728 312.471C438.69 311.24 439.644 310.188 440.589 309.314C440.607 309.296 440.856 309.073 441.338 308.644L441.578 308.457C441.65 308.368 441.765 308.323 441.926 308.323L441.953 308.323C442.113 308.323 442.22 308.394 442.274 308.537C442.363 308.644 442.363 308.769 442.274 308.912C442.221 309.019 442.122 309.117 441.98 309.206L441.873 309.313C439.234 311.668 437.131 314.38 435.563 317.448C435.473 317.609 435.375 317.85 435.269 318.171L435.242 318.251C435.188 318.34 435.197 318.447 435.269 318.572C435.34 318.679 435.447 318.732 435.59 318.732C435.733 318.732 435.947 318.679 436.232 318.572L436.366 318.491L438.024 317.688C438.969 317.242 439.593 316.965 439.896 316.858L440.003 316.831C440.199 316.742 440.378 316.688 440.538 316.67C440.574 316.653 440.636 316.644 440.725 316.644C440.975 316.643 441.189 316.733 441.368 316.911C441.546 317.071 441.644 317.276 441.662 317.526C441.716 317.794 441.689 318.088 441.582 318.409C441.582 318.445 441.573 318.471 441.555 318.489C441.484 318.792 441.475 319.024 441.529 319.185L441.583 319.292L441.69 319.318L441.823 319.318C441.912 319.318 442.064 319.274 442.278 319.184L442.358 319.158L442.679 318.997C442.982 318.854 443.455 318.622 444.097 318.301C444.81 317.944 445.693 317.542 446.745 317.096C446.816 317.06 446.914 317.016 447.039 316.962C447.182 316.909 447.289 316.864 447.36 316.828L447.44 316.801C447.654 316.694 447.824 316.641 447.948 316.641L448.002 316.641C448.234 316.641 448.377 316.712 448.43 316.855C448.537 317.086 448.493 317.283 448.297 317.443C448.136 317.604 447.967 317.684 447.788 317.684C447.61 317.702 447.343 317.782 446.986 317.925L446.825 318.006C446.219 318.255 445.328 318.675 444.151 319.264L442.813 319.906C442.296 320.139 441.904 320.29 441.636 320.362C441.44 320.433 441.262 320.469 441.101 320.469L441.075 320.469ZM453.868 319.528C453.725 319.528 453.618 319.519 453.547 319.501C452.905 319.394 452.584 318.913 452.583 318.057C452.583 317.611 452.574 317.379 452.556 317.361C452.521 317.326 452.476 317.299 452.423 317.281C452.387 317.263 452.333 317.263 452.262 317.281C452.209 317.281 452.164 317.29 452.128 317.308C452.093 317.308 452.021 317.326 451.914 317.361C451.825 317.397 451.763 317.424 451.727 317.442L451.674 317.469C451.424 317.558 451.192 317.647 450.978 317.736L449.48 318.299C448.678 318.638 448.027 318.71 447.527 318.514C447.064 318.335 446.876 318.014 446.965 317.551C447.108 316.837 447.437 316.168 447.954 315.544C448.026 315.473 448.133 315.401 448.275 315.33C448.347 315.276 448.427 315.249 448.516 315.249C448.623 315.249 448.73 315.312 448.837 315.437C448.998 315.633 448.98 315.802 448.784 315.945C448.552 316.177 448.302 316.542 448.035 317.042C448 317.149 447.982 317.22 447.982 317.256C447.964 317.345 447.982 317.443 448.035 317.55C448.071 317.622 448.125 317.675 448.196 317.711C448.267 317.746 448.348 317.755 448.437 317.737C448.526 317.719 448.606 317.702 448.677 317.684C448.767 317.648 448.856 317.612 448.945 317.577C449.052 317.523 449.114 317.496 449.132 317.496C449.774 317.282 450.505 317.005 451.325 316.666L451.646 316.532C452.021 316.372 452.36 316.247 452.663 316.157C452.806 316.104 452.948 316.077 453.091 316.077L453.118 316.077C453.563 316.077 453.787 316.308 453.787 316.772C453.787 316.879 453.716 317.2 453.573 317.735C453.448 318.074 453.457 318.333 453.6 318.511C453.707 318.636 453.859 318.698 454.055 318.698C454.144 318.698 454.296 318.662 454.51 318.591C454.528 318.591 454.536 318.591 454.536 318.591L454.59 318.564C455 318.439 455.419 318.279 455.847 318.082C456.418 317.814 457.327 317.377 458.575 316.77C458.985 316.592 459.342 316.422 459.645 316.262C459.663 316.262 459.69 316.253 459.725 316.235L459.886 316.154L460.02 316.154C460.145 316.154 460.252 316.199 460.341 316.288C460.448 316.466 460.448 316.636 460.341 316.796C460.287 316.886 460.198 316.966 460.074 317.037L460.02 317.064L459.646 317.251L458.736 317.68C458.415 317.823 457.925 318.046 457.265 318.349C456.623 318.653 456.142 318.876 455.821 319.019C455.232 319.322 454.706 319.492 454.243 319.527L453.868 319.528ZM471.502 319.574C471.002 319.539 470.735 319.289 470.699 318.825C470.645 318.487 470.672 318.112 470.779 317.702C470.832 317.452 470.85 317.22 470.832 317.006C470.796 316.81 470.68 316.712 470.484 316.712C470.43 316.712 470.386 316.721 470.35 316.739C470.207 316.792 469.993 316.891 469.708 317.033C469.155 317.355 468.638 317.667 468.157 317.97C467.943 318.113 467.265 318.488 466.124 319.095C465.696 319.327 465.304 319.443 464.947 319.443L464.921 319.443C464.457 319.443 464.216 319.202 464.198 318.721C464.198 318.596 464.233 318.391 464.305 318.106C464.305 318.07 464.323 317.999 464.358 317.892L464.385 317.704L464.465 317.41C464.483 317.285 464.456 317.169 464.385 317.062C464.295 316.973 464.179 316.929 464.037 316.929L464.01 316.929C463.76 316.947 463.502 317.018 463.234 317.143L463.154 317.17C462.922 317.259 462.262 317.58 461.175 318.134L461.148 318.16L459.784 318.83C459.445 318.973 459.124 319.044 458.821 319.044L458.741 319.044C458.259 319.009 458.009 318.768 457.991 318.322C457.938 317.894 458 317.511 458.178 317.172C458.535 316.565 458.989 315.95 459.542 315.325C459.667 315.218 459.8 315.165 459.943 315.165L460.05 315.165C460.175 315.182 460.264 315.254 460.318 315.378C460.389 315.485 460.389 315.584 460.318 315.673C460.282 315.762 460.193 315.896 460.05 316.074C459.623 316.574 459.293 317.011 459.061 317.385C459.043 317.403 459.025 317.439 459.008 317.492C458.99 317.546 458.972 317.591 458.954 317.626C458.954 317.769 458.99 317.876 459.061 317.947C459.115 318.001 459.195 318.027 459.302 318.027L459.382 318.027L459.463 318.001C459.534 317.965 459.641 317.92 459.784 317.867C459.926 317.795 460.033 317.751 460.105 317.733L461.362 317.09C461.593 316.965 461.959 316.778 462.458 316.528C462.868 316.332 463.287 316.18 463.715 316.073C463.929 316.037 464.126 316.019 464.304 316.019L464.464 316.019C465.053 316.054 465.365 316.375 465.401 316.982C465.401 317.196 465.375 317.392 465.321 317.57C465.321 317.641 465.303 317.749 465.268 317.891C465.268 318.034 465.295 318.141 465.348 318.212C465.455 318.283 465.544 318.319 465.616 318.319C465.687 318.319 465.732 318.31 465.749 318.292L465.776 318.266L466.338 318.025C466.463 317.953 466.65 317.837 466.899 317.677C467.167 317.516 467.363 317.4 467.488 317.329C467.862 317.132 468.192 316.936 468.477 316.74C468.531 316.704 468.709 316.606 469.012 316.445C469.333 316.267 469.601 316.124 469.815 316.017C470.064 315.874 470.385 315.758 470.778 315.669C470.831 315.651 470.903 315.642 470.992 315.642C471.473 315.642 471.732 315.909 471.768 316.444L471.768 316.658L471.768 316.792C471.768 316.863 471.759 316.943 471.741 317.033C471.741 317.122 471.732 317.22 471.715 317.327C471.697 317.434 471.688 317.514 471.688 317.568C471.688 317.585 471.679 317.621 471.661 317.675C471.661 317.71 471.652 317.737 471.635 317.755C471.617 317.862 471.608 318.014 471.608 318.21C471.608 318.352 471.644 318.45 471.715 318.504C471.769 318.593 471.858 318.638 471.983 318.638C472.018 318.638 472.072 318.62 472.143 318.584L472.17 318.584C472.598 318.441 472.919 318.316 473.133 318.209L474.871 317.406C475.513 317.12 476.004 316.897 476.343 316.736C476.592 316.629 476.815 316.549 477.011 316.495C477.029 316.478 477.065 316.469 477.118 316.469C477.314 316.469 477.457 316.549 477.546 316.709C477.653 316.905 477.627 317.084 477.466 317.244C477.306 317.405 477.172 317.485 477.065 317.485C476.815 317.503 476.512 317.601 476.156 317.78L476.075 317.807C475.933 317.878 475.612 318.03 475.113 318.262C474.613 318.494 474.221 318.672 473.936 318.797C473.258 319.101 472.696 319.333 472.251 319.494C472.037 319.547 471.823 319.574 471.609 319.574L471.502 319.574ZM475.128 319.76C474.985 319.76 474.825 319.724 474.646 319.653C474.325 319.511 474.165 319.27 474.164 318.931C474.164 318.717 474.218 318.53 474.325 318.369C475.376 316.728 476.722 315.907 478.363 315.906C478.773 315.906 479.139 316.013 479.46 316.227C479.728 316.405 479.978 316.494 480.209 316.494L480.37 316.494C480.388 316.476 480.414 316.467 480.45 316.467C480.593 316.467 480.709 316.539 480.798 316.681C480.905 316.824 480.914 316.984 480.825 317.163C480.7 317.395 480.593 317.689 480.504 318.046C480.451 318.224 480.478 318.367 480.585 318.474C480.656 318.598 480.79 318.661 480.986 318.661L481.066 318.661C481.619 318.571 482.083 318.455 482.457 318.312C483.099 318.08 483.812 317.741 484.597 317.295C484.74 317.224 484.882 317.152 485.025 317.081C485.185 316.992 485.346 316.911 485.506 316.84C485.685 316.751 485.81 316.688 485.881 316.652C486.041 316.581 486.175 316.527 486.282 316.492L486.362 316.492C486.576 316.492 486.728 316.608 486.817 316.839C486.853 317.053 486.782 317.196 486.603 317.267C486.247 317.428 485.73 317.687 485.052 318.044C484.161 318.544 483.394 318.91 482.752 319.142C482.074 319.392 481.423 319.517 480.799 319.517C480.335 319.517 480.005 319.383 479.809 319.116C479.702 318.938 479.604 318.67 479.515 318.314L479.488 318.153L479.327 318.153C479.095 318.171 478.872 318.251 478.659 318.394L478.525 318.474L478.445 318.528C477.624 318.956 477 319.242 476.572 319.385C476.198 319.51 475.832 319.617 475.476 319.706C475.297 319.742 475.181 319.76 475.128 319.76ZM475.769 318.69L475.85 318.69C475.885 318.69 475.975 318.672 476.117 318.636C476.759 318.404 477.553 318.02 478.498 317.485L478.658 317.351C478.729 317.244 478.738 317.137 478.685 317.03C478.667 316.923 478.595 316.852 478.471 316.816C478.435 316.816 478.39 316.816 478.337 316.816C478.301 316.798 478.274 316.789 478.257 316.789L478.15 316.789C477.204 316.861 476.34 317.316 475.555 318.155C475.502 318.208 475.475 318.28 475.475 318.369C475.475 318.387 475.493 318.449 475.529 318.556C475.582 318.645 475.662 318.69 475.769 318.69ZM492.117 320.128C491.796 320.128 491.573 320.039 491.448 319.86C491.27 319.647 491.207 319.388 491.261 319.085L491.421 318.523C491.439 318.434 491.466 318.318 491.501 318.175C491.537 318.015 491.519 317.872 491.448 317.747C491.376 317.64 491.269 317.587 491.127 317.587C491.109 317.587 491.082 317.596 491.046 317.613L490.993 317.613C490.672 317.685 490.351 317.765 490.03 317.855C489.762 317.944 489.379 318.078 488.88 318.256C488.398 318.435 488.095 318.551 487.97 318.605L486.633 319.087C486.561 319.104 486.446 319.14 486.285 319.194C486.142 319.247 486.026 319.292 485.937 319.328C485.83 319.345 485.67 319.39 485.456 319.462C485.295 319.515 485.117 319.542 484.921 319.542L484.707 319.542C484.493 319.542 484.332 319.471 484.225 319.328C484.118 319.186 484.073 319.007 484.091 318.793C484.109 318.651 484.162 318.499 484.252 318.338C484.43 317.875 484.67 317.438 484.973 317.027L485.107 316.813L485.615 316.144C485.686 316.037 485.749 315.957 485.802 315.903C485.909 315.832 486.007 315.796 486.096 315.796C486.186 315.796 486.257 315.823 486.31 315.876C486.453 315.966 486.507 316.117 486.471 316.331C486.436 316.438 486.346 316.599 486.204 316.813L486.124 316.92C486.088 316.973 485.999 317.098 485.856 317.294L485.455 317.91C485.348 318.053 485.348 318.195 485.455 318.338C485.527 318.409 485.625 318.445 485.75 318.445C485.803 318.445 485.839 318.436 485.857 318.418L486.98 318.016L487.997 317.641L489.708 317.052C490.208 316.874 490.68 316.749 491.126 316.677C491.233 316.659 491.394 316.65 491.608 316.65L491.661 316.65C492.107 316.65 492.375 316.873 492.464 317.319C492.482 317.372 492.491 317.461 492.491 317.586L492.491 317.72C492.491 317.863 492.464 318.014 492.411 318.175L492.331 318.496L492.331 318.523C492.295 318.701 492.322 318.835 492.411 318.924C492.482 318.995 492.572 319.031 492.679 319.031C492.75 319.031 492.839 319.013 492.946 318.977C493.018 318.941 493.062 318.915 493.08 318.897L493.267 318.816L494.364 318.334L496.691 317.29L497.252 317.049L497.627 316.889C497.752 316.835 497.903 316.808 498.082 316.808L498.108 316.808C498.322 316.808 498.456 316.915 498.51 317.129C498.581 317.325 498.51 317.477 498.296 317.584L498.216 317.637L498.189 317.637C497.69 317.816 496.95 318.128 495.969 318.575L494.551 319.217L493.588 319.619L492.92 319.94C492.635 320.047 492.412 320.11 492.251 320.128L492.117 320.128Z" fill="#050038"/>
</g>
<defs>
<clipPath id="clip0_430_3526">
<rect width="1440" height="438" fill="white"/>
</clipPath>
</defs>
</svg>
