<svg width="640" height="134" viewBox="0 0 640 134" fill="none" xmlns="http://www.w3.org/2000/svg">
<g clip-path="url(#clip0_442_4231)">
<path d="M302.715 60.7698C311.508 62.4078 321.305 59.2926 330.125 60.8012C338.65 62.2593 347.627 61.7515 356.124 63.8427C374.638 68.3997 393.341 71.4837 411.638 76.6673C416.324 77.9949 416.147 80.1586 415.142 84.2448C413.842 89.5232 408.858 89.883 404.007 90.9241C385.869 94.8165 366.437 92.8629 347.813 93.3214C327.743 93.8155 307.492 92.164 287.974 87.3598C279.582 85.2944 271.191 83.229 262.8 81.1636C254.522 79.1262 251.717 76.6631 254.304 68.1604C255.898 62.9218 264.427 58.3874 269.338 56.938C281.639 53.307 296.371 53.3152 309.106 53.1095C343.956 52.5466 379.661 55.6473 414.369 59.3391C428.331 60.8242 443.258 61.7863 456.896 65.1431C464.442 67.0005 471.504 68.1535 478.11 72.0433C482.333 74.5303 479.971 80.2559 479.043 84.0247C478.311 86.9997 474.616 87.8581 471.933 88.5701C465.877 90.1772 460.01 92.1029 453.825 93.3931C442.285 95.8008 430.934 98.4079 419.181 100.162C401.46 102.806 382.694 106.485 364.671 106.238C356.512 106.126 348.47 107.296 340.29 107.138C331.355 106.967 322.305 106.901 313.389 106.206C296.566 104.895 279.717 105.655 262.925 103.439C236.013 99.8865 209.05 98.1523 182.615 91.6457C177.463 90.3777 171.707 84.7439 173.077 79.1787C175.328 70.0332 187.564 67.7897 195.23 64.3459C202.725 60.979 210.6 59.1184 218.718 57.7227C225.392 56.5752 231.54 54.1353 238.049 52.408C253.972 48.1826 270.123 46.0017 286.474 44.1814C294.767 43.2582 303.26 44.4344 311.607 44.1186C321.373 43.7489 330.747 43.6302 340.419 42.3499C350.058 41.0738 359.893 40.1367 369.603 39.4603C383.868 38.4664 397.927 41.1406 412.129 41.9533C436.05 43.3219 459.797 40.95 483.544 45.6808C493.658 47.6957 503.64 49.7877 513.658 52.2535C519.282 53.6378 528.01 54.1939 532.331 58.5748C534.55 60.8248 538.114 68.38 537.429 71.1616C535.966 77.1072 533.566 80.3496 529.682 85.1101C523.841 92.2695 515.121 92.3215 506.984 95.1454C484.98 102.782 460.459 104.115 437.184 106.085C407.228 108.62 377.099 109.657 347.224 112.855C321.454 115.615 295.845 118.422 269.907 119.473C233.934 120.931 197.425 116.533 162.067 110.278C149.854 108.117 94.3853 103.853 114.421 79.8972C120.905 72.1445 133.182 66.7148 141.825 61.647C149.626 57.0733 158.812 55.073 167.126 51.5528C178.908 46.564 189.942 43.1274 202.547 40.2655C230.575 33.9021 258.892 31.8081 287.308 27.552C318.147 22.9327 349.153 26.8479 380.195 24.8597C407.547 23.1077 435.348 26.0987 462.725 26.6598C489.712 27.2129 517.457 30.5248 543.731 36.9916C555.377 39.8581 567.51 42.0039 578.741 46.2618C584.45 48.426 589.705 53.4378 594.072 57.5898C600.153 63.372 594.394 77.2309 591.092 83.7171C588.043 89.7072 575.917 92.6274 570.293 95.3857C560.768 100.057 550.436 102.582 540.608 106.546C527.048 112.015 509.891 113.052 495.327 113.681C480.689 114.313 465.82 115.39 451.176 115.451C438.954 115.503 426.602 115.564 414.508 117.199C404.944 118.491 395.419 120.72 385.8 121.464C376.495 122.184 367.263 123.643 357.936 124.446C343.407 125.696 328.644 126.281 314.034 126.371C282.438 126.566 251.011 120.681 219.367 120.324C193.579 120.034 168.19 121.524 142.439 121.862C128.951 122.038 115.71 120.156 102.392 118.253C90.2558 116.52 76.3285 113.86 65.6303 107.526C55.9531 101.797 49.7053 94.2327 49.3781 83.1941C49.0488 72.087 56.2437 68.5551 65.6343 63.6922C82.2264 55.1001 98.7275 45.3708 117.459 41.8462C123.492 40.7112 129.184 38.8798 134.992 37.0216C141.663 34.8873 148.689 34.284 155.412 32.3479C171.546 27.7012 188.079 24.4621 204.739 22.0118C222.478 19.4029 240.294 14.5445 258.285 14.2063C292.249 13.5679 326.53 17.4943 360.43 14.2125C367.454 13.5325 374.084 14.1074 381.1 14.1703C385.308 14.2081 389.568 14.5703 393.765 14.9092C398.054 15.2556 386.2 18.8058 382.441 20.7959" stroke="#050038"/>
<circle cx="51.6227" cy="81.3826" r="13.0716" transform="rotate(15.7077 51.6227 81.3826)" fill="#3F53D9"/>
<circle cx="51.623" cy="81.3826" r="20.9475" transform="rotate(15.7077 51.623 81.3826)" stroke="#050038"/>
<circle cx="596.654" cy="65.9671" r="13.0716" transform="rotate(15.7077 596.654 65.9671)" fill="#FF6575"/>
<circle cx="596.654" cy="65.967" r="20.9475" transform="rotate(15.7077 596.654 65.967)" stroke="#050038"/>
<g clip-path="url(#clip1_442_4231)">
<path d="M630.934 68.1702C628.581 82.1669 625.184 96.7511 609.64 101.511" stroke="#050038" stroke-width="1.4" stroke-linecap="round"/>
<path d="M630.754 91.2136C626.293 99.1085 619.956 104.103 613.669 110.494" stroke="#050038" stroke-width="1.4" stroke-linecap="round"/>
</g>
<g clip-path="url(#clip2_442_4231)">
<path d="M8.67969 77.9786C12.1273 64.2107 16.663 49.9395 32.534 46.4189" stroke="#050038" stroke-width="1.4" stroke-linecap="round"/>
<path d="M10.6758 55.0211C15.7443 47.5022 22.4555 43.0222 29.2266 37.1466" stroke="#050038" stroke-width="1.4" stroke-linecap="round"/>
</g>
</g>
<defs>
<clipPath id="clip0_442_4231">
<rect width="640" height="134" fill="white"/>
</clipPath>
<clipPath id="clip1_442_4231">
<rect width="49.2603" height="20.7036" fill="white" transform="matrix(0.204269 -0.978915 -0.978915 -0.204269 626.586 115.376)"/>
</clipPath>
<clipPath id="clip2_442_4231">
<rect width="49.2603" height="20.7036" fill="white" transform="matrix(-0.280749 0.959781 0.959781 0.280749 16.7344 31.2616)"/>
</clipPath>
</defs>
</svg>
