<svg id="Layer_1" data-name="Layer 1" xmlns="http://www.w3.org/2000/svg" viewBox="0 0 360.65 100"><defs><style>.cls-1{fill:#eaeef9;}.cls-2{fill:#fff;}</style></defs><path class="cls-1" d="M99.28,82.45A16.28,16.28,0,0,1,72.75,95.11a17,17,0,0,1-2.33-2.32l-3.69-3.71-3.64-3.62L60.65,83h0a16.26,16.26,0,0,0-20.4,0h0l-2.37,2.35h0L34.22,89l-3.61,3.62A16.35,16.35,0,0,1,29.42,94c-.41.41-.85.8-1.3,1.17h0A16.27,16.27,0,0,1,5.56,71.87,12.34,12.34,0,0,1,6.41,71c.3-.3.6-.58.91-.85L34.18,43.21l4.15-4.15h0c.19-.22.39-.43.6-.64s.42-.4.63-.6h0a16.27,16.27,0,0,1,21.5-.19h0c.3.25.59.52.86.79s.55.56.8.86h0l4,4L93.34,70a12.92,12.92,0,0,1,1.09,1c.35.34.69.72,1,1.1A16.24,16.24,0,0,1,99.28,82.45Z"/><path class="cls-2" d="M34.19,17.37a16.24,16.24,0,0,1-4.77,11.51L1.65,56.68V17.36a16.27,16.27,0,0,1,32.54,0Z"/><path class="cls-2" d="M99.28,17.37V56.69L71.63,29l-.4-.42A16.27,16.27,0,1,1,99.28,17.38Z"/><path class="cls-1" d="M147.9,74.72l-4.76,15.43H139.4l-3-7.45-2.9,7.45H129.8L125,74.72h4.56L132,83.61l3.68-8.81h1.46l3.75,8.82,2.45-8.9Z"/><path class="cls-1" d="M163.76,86.46v3.69h-10V74.72h9.87v3.67h-5.66v2.26H163v3.49h-5.07v2.31Z"/><path class="cls-1" d="M180.13,82a4.09,4.09,0,0,1,2.37,3.75c0,2.5-2.16,4.4-5,4.4h-7.11V74.72h7c2.74,0,4.73,1.67,4.73,4A3.91,3.91,0,0,1,180.13,82Zm-1.84,3.25a1.38,1.38,0,0,0-1.37-1.4h-2.45v2.81h2.3a1.4,1.4,0,0,0,1.52-1.24A1,1,0,0,0,178.29,85.25Zm-.24-5.87A1.32,1.32,0,0,0,176.8,78h-2.33V80.7h2.14A1.29,1.29,0,0,0,178,79.54a1.28,1.28,0,0,0,0-.19Z"/><path class="cls-1" d="M197.13,85.17h4.39a1.64,1.64,0,0,0,1.81,1.64c.9,0,1.74-.48,1.74-1.32s-1.21-1.25-2.68-1.6c-2.22-.56-5.07-1.24-5.07-4.75,0-3,2.23-4.78,5.87-4.78s5.82,1.9,5.82,5h-4.26A1.43,1.43,0,0,0,203.14,78c-.75,0-1.48.33-1.48,1.05,0,.88,1.16,1.17,2.61,1.53,2.26.58,5.24,1.36,5.24,4.87s-2.59,5.12-6.17,5.12C199.57,90.53,197.13,88.53,197.13,85.17Z"/><path class="cls-1" d="M223.62,90.54c-5,0-8.49-3.39-8.49-8.1s3.53-8.11,8.49-8.11,8.47,3.38,8.47,8.11-3.52,8.1-8.47,8.1Zm0-4a4.15,4.15,0,0,0,0-8.29,4.15,4.15,0,1,0,0,8.29Z"/><path class="cls-1" d="M248.25,86.25v3.9h-9.8V74.72h4.31V86.25Z"/><path class="cls-1" d="M253.84,84.18V74.72h4.35v9.39a2.39,2.39,0,1,0,4.78,0V74.72h4.34v9.46c0,3.8-2.8,6.36-6.73,6.36S253.84,88,253.84,84.18Z"/><path class="cls-1" d="M285.89,78.55H281.7v11.6h-4.27V78.55h-4.19V74.72H285.9Z"/><path class="cls-1" d="M292,74.72h4.31V90.15H292Z"/><path class="cls-1" d="M311.14,90.54c-5,0-8.49-3.39-8.49-8.1s3.54-8.11,8.49-8.11,8.47,3.38,8.47,8.11-3.52,8.1-8.47,8.1Zm0-4a4.15,4.15,0,0,0,0-8.29,4.15,4.15,0,0,0,0,8.29Z"/><path class="cls-1" d="M339.73,74.72V90.15h-3.51l-6.13-8.37v8.37H326V74.72h3.72l5.92,8.1v-8.1Z"/><path class="cls-1" d="M346.16,85.17h4.38a1.64,1.64,0,0,0,1.81,1.64c.9,0,1.74-.48,1.74-1.32s-1.2-1.25-2.67-1.6c-2.23-.56-5.08-1.24-5.08-4.75,0-3,2.23-4.78,5.88-4.78s5.81,1.9,5.81,5h-4.26a1.42,1.42,0,0,0-1.6-1.43c-.76,0-1.49.33-1.49,1.05,0,.88,1.16,1.17,2.62,1.53,2.26.58,5.23,1.36,5.23,4.87s-2.59,5.12-6.16,5.12C348.6,90.53,346.16,88.53,346.16,85.17Z"/><path class="cls-1" d="M192.27,13.76l-16,51.82H163.71l-9.94-25-9.75,25H131.45L115.22,13.76h15.33L139,43.63,151.31,14h4.94l12.57,29.64,8.25-29.9Z"/><rect class="cls-1" x="197.04" y="25.6" width="13.78" height="39.99"/><path class="cls-1" d="M243,24.36c12.31,0,21,8.84,21,21.27s-8.7,21.28-21,21.28A18.65,18.65,0,0,1,231,62.63l-1.31,2.95H219.47V9.28h13.62V27.11A18.72,18.72,0,0,1,243,24.36Zm7.11,21.27a9,9,0,1,0-17.91,0,9,9,0,1,0,17.91,0Z"/><rect class="cls-1" x="270.35" y="25.6" width="13.78" height="39.99"/><path class="cls-1" d="M319.75,53.53v12h-9.49c-8.84,0-14.22-5.43-14.22-14.29V31.83h-7.32V28.6L306.66,9.53h2.83V21.22h10V31.83h-9.7V48.94a4.25,4.25,0,0,0,4.64,4.6Z"/><path class="cls-1" d="M341.61,66.91c-10.89,0-17.52-5.76-17.65-14.42h13.26c0,2.92,2,4.26,4.65,4.26,2,0,3.92-1,3.92-3.09,0-2.31-3-3-6.87-3.61-6.2-1-14.41-2.88-14.41-12.58,0-8,6.82-13.19,17.07-13.19s16.78,5.42,16.94,13.52h-12.9c0-2.55-1.72-3.74-4.21-3.74-2.21,0-3.69,1.09-3.69,2.95,0,2.26,3.06,2.8,6.86,3.48,6.33,1.12,14.71,2.44,14.71,12.58,0,8.35-7.05,13.82-17.68,13.82Z"/><circle class="cls-1" cx="203.92" cy="16.22" r="6.89"/><circle class="cls-1" cx="277.24" cy="16.22" r="6.89"/></svg>